<svg width="253" height="67" viewBox="0 0 253 67" fill="none" xmlns="http://www.w3.org/2000/svg">
<path d="M38.2116 53.2317L44.3776 25.5749H44.2448C42.7933 28.7836 41.4787 31.9922 39.9586 35.2051L31.3306 53.236H20.4503L23.2036 25.5792H23.0709C22.1288 28.8478 21.3367 32.0565 20.2662 35.3251L14.3572 53.2403H0L17.5558 9.24477H34.2038L31.7417 32.6391H31.8659C32.9963 29.8974 34.0453 27.2114 35.3685 24.4697L42.6562 9.24048H59.1073L52.1149 53.236H38.2116V53.2317Z" fill="#F2F4F9"/>
<path d="M68.9513 44.4198C67.9965 44.4198 67.6796 43.4859 67.6668 42.3164C67.6668 41.0955 67.9108 39.6946 68.0907 38.8164C68.2962 37.8269 68.6944 35.8991 69.2811 34.2627C69.9319 32.5705 70.7797 31.1697 71.9915 31.1697C73.2033 31.1697 73.4174 32.3349 73.3959 33.6758C73.3574 35.0766 72.9977 36.5931 72.8222 37.4113C72.6423 38.2852 72.2827 40.0373 71.6532 41.6095C71.088 43.126 70.2102 44.4112 68.9513 44.4112V44.4198ZM85.8349 22.422H75.7724L75.1986 27.1514L75.0745 27.2671C74.4407 24.2341 72.972 21.7837 69.7906 21.7837C62.9653 21.7837 59.3984 31.4696 58.1438 37.5355C56.8978 43.5501 56.0842 53.8743 62.9567 53.8743C66.1938 53.8743 69.0455 51.3082 70.9895 48.0396L71.058 48.1553L69.5594 53.2317H79.4677L85.8306 22.422H85.8349Z" fill="#F2F4F9"/>
<path d="M102.988 34.5581C102.183 34.0312 101.138 33.4528 100.432 33.4528C96.7408 33.4528 95.4477 37.5311 94.7797 40.744L92.202 53.2315H82.2937L88.6566 22.4218H98.612L96.8393 28.3164L96.9164 28.4321C98.8133 24.6409 101.965 21.6036 105.617 21.7792L102.984 34.5581H102.988Z" fill="#F2F4F9"/>
<path d="M115.59 37.7666H115.487L112.297 53.2315H102.389L111.989 6.72559H121.897L115.782 36.3101H115.885L123.408 22.4217H134.122L124.629 36.5414L128.414 53.2315H117.041L115.585 37.7666H115.59Z" fill="#F2F4F9"/>
<path d="M150.962 38.2337L155.531 28.0209C156.786 25.2792 157.869 22.4776 158.995 19.7359H159.128C158.721 22.4776 158.229 25.2792 157.891 28.0209L156.597 38.2337H150.962ZM168.972 53.2316L170.265 9.23608H153.938L130.294 53.2316H144.056L146.689 47.5726H155.672L155.142 53.2316H168.976H168.972Z" fill="#F2F4F9"/>
<path d="M187.149 28.1409L187.226 28.2565C188.87 24.9322 192.099 21.7793 195.383 21.7793C201.095 21.7793 201.356 27.3826 200.208 32.9217L196.016 53.2273H186.108L189.32 37.6468C189.868 35.0208 190.095 33.153 188.433 33.153C186.506 33.153 185.924 35.2521 185.273 38.4051L182.207 53.223H172.299L178.666 22.4133H188.575L187.14 28.1323L187.149 28.1409Z" fill="#F2F4F9"/>
<path d="M197.472 67L205.128 51.9464L203.296 22.4219H213.251L212.986 33.0416C212.917 35.3164 212.789 37.6511 212.729 39.9258H212.823C213.654 37.6511 214.287 35.3164 215.204 33.0416L219.477 22.4219H229.385L207.745 67H197.477H197.472Z" fill="#F2F4F9"/>
<path d="M243.469 0L241.55 4.98645L238.908 1.67929L234.965 5.69758L237.388 9.12896L233.085 10.4613L233.312 15.9618L237.782 14.788L235.765 20.0315L240.604 22.2162L242.694 16.6558L245.875 21.1795L250.876 16.6558L247.365 12.2691L253 10.7868L251.981 4.59233L246.599 6.26733L248.581 0.985302L243.469 0Z" fill="#F2F4F9"/>
</svg>
